<svg width="24" height="24" viewBox="0 0 24 24" fill="none" xmlns="http://www.w3.org/2000/svg">
<path d="M20.53 6.77977C20.39 6.63977 20.2 6.55977 20 6.55977C19.23 6.55977 18.33 6.31977 17.8 5.96977C16.98 5.43977 16.41 4.59977 16.24 3.64977C16.2 3.43976 16.18 3.21977 16.19 3.00977C16.19 2.80977 16.11 2.61977 15.97 2.47977C15.83 2.33977 15.64 2.25977 15.44 2.25977H12.35C11.94 2.25977 11.6 2.59977 11.6 3.00977V15.2998C11.6 15.4898 11.57 15.6798 11.51 15.8598C11.36 16.3398 11.03 16.7298 10.59 16.9598C10.15 17.1898 9.63997 17.2398 9.15997 17.0898C8.67997 16.9398 8.29 16.6098 8.06 16.1698C7.83 15.7298 7.78 15.2198 7.94 14.7398C8.09 14.2598 8.41999 13.8698 8.85999 13.6398C9.29999 13.4098 9.80998 13.3598 10.29 13.5098C10.52 13.5798 10.77 13.5398 10.96 13.3998C11.15 13.2598 11.27 13.0298 11.27 12.7998V9.63977C11.27 9.26977 10.99 8.94977 10.62 8.89977C10.33 8.85977 10.03 8.83977 9.72998 8.83977C7.99998 8.83977 6.37997 9.50977 5.15997 10.7298C3.93997 11.9498 3.27001 13.5698 3.26001 15.2998C3.26001 18.8698 6.15997 21.7698 9.71997 21.7698C13.28 21.7698 16.19 18.8698 16.19 15.3098V10.3198C17.34 10.8498 18.68 11.1498 19.99 11.1498C20.41 11.1498 20.76 10.8198 20.76 10.3998V7.32977C20.76 7.12977 20.68 6.93977 20.54 6.79977L20.53 6.77977ZM19.25 9.59978C18.01 9.46978 16.76 9.03976 15.87 8.39977C15.64 8.23977 15.34 8.20977 15.09 8.33977C14.84 8.46977 14.68 8.72977 14.68 9.00977V15.2898C14.68 18.0298 12.45 20.2498 9.71002 20.2498C6.97002 20.2498 4.75 18.0198 4.75 15.2798C4.75 13.9498 5.27002 12.7098 6.21002 11.7698C7.15002 10.8298 8.38997 10.3198 9.71997 10.3198C9.71997 10.3198 9.74 10.3198 9.75 10.3198V11.9098C9.22 11.8898 8.65002 12.0298 8.15002 12.2898C7.35002 12.7098 6.75999 13.4098 6.48999 14.2698C6.21999 15.1298 6.29997 16.0398 6.71997 16.8398C7.13997 17.6398 7.84001 18.2298 8.70001 18.4998C9.56001 18.7698 10.47 18.6898 11.27 18.2698C12.07 17.8498 12.66 17.1498 12.93 16.2898C13.03 15.9598 13.09 15.6198 13.09 15.2798V3.73978H14.74C14.74 3.79978 14.76 3.84977 14.77 3.90977C15.02 5.26977 15.84 6.46977 16.99 7.21977C17.58 7.60977 18.42 7.88977 19.26 7.99977V9.57977L19.25 9.59978Z" fill="white"/>
</svg>
